<?xml version="1.0" encoding="UTF-8" standalone="no"?>
<svg width="2977.2px" height="4208.4px" viewBox="0 0 2977.2 4208.4"
 xmlns="http://www.w3.org/2000/svg" xmlns:xlink="http://www.w3.org/1999/xlink" version="1.2" baseProfile="tiny">
<title>Sans titre-2</title>
<desc>Generated by MuseScore 3.1.0</desc>
<polyline class="StaffLines" fill="none" stroke="green" stroke-width="2.00" stroke-linejoin="bevel" points="376.232,316.732 1226.06,316.732"/>
<polyline class="StaffLines" fill="none" stroke="green" stroke-width="2.00" stroke-linejoin="bevel" points="376.232,341.732 1226.06,341.732"/>
<polyline class="StaffLines" fill="none" stroke="green" stroke-width="2.00" stroke-linejoin="bevel" points="376.232,366.732 1226.06,366.732"/>
<polyline class="StaffLines" fill="none" stroke="green" stroke-width="2.00" stroke-linejoin="bevel" points="376.232,391.732 1226.06,391.732"/>
<polyline class="StaffLines" fill="none" stroke="green" stroke-width="2.00" stroke-linejoin="bevel" points="376.232,416.732 1226.06,416.732"/>
<polyline class="StaffLines" fill="none" stroke="green" stroke-width="2.00" stroke-linejoin="bevel" points="376.232,579.233 1226.06,579.233"/>
<polyline class="StaffLines" fill="none" stroke="green" stroke-width="2.00" stroke-linejoin="bevel" points="376.232,604.233 1226.06,604.233"/>
<polyline class="StaffLines" fill="none" stroke="green" stroke-width="2.00" stroke-linejoin="bevel" points="376.232,629.233 1226.06,629.233"/>
<polyline class="StaffLines" fill="none" stroke="green" stroke-width="2.00" stroke-linejoin="bevel" points="376.232,654.233 1226.06,654.233"/>
<polyline class="StaffLines" fill="none" stroke="green" stroke-width="2.00" stroke-linejoin="bevel" points="376.232,679.233 1226.06,679.233"/>
<polyline class="StaffLines" fill="none" stroke="green" stroke-width="2.00" stroke-linejoin="bevel" points="376.232,841.733 1226.06,841.733"/>
<polyline class="StaffLines" fill="none" stroke="green" stroke-width="2.00" stroke-linejoin="bevel" points="376.232,866.733 1226.06,866.733"/>
<polyline class="StaffLines" fill="none" stroke="green" stroke-width="2.00" stroke-linejoin="bevel" points="376.232,891.733 1226.06,891.733"/>
<polyline class="StaffLines" fill="none" stroke="green" stroke-width="2.00" stroke-linejoin="bevel" points="376.232,916.733 1226.06,916.733"/>
<polyline class="StaffLines" fill="none" stroke="green" stroke-width="2.00" stroke-linejoin="bevel" points="376.232,941.733 1226.06,941.733"/>
<polyline class="StaffLines" fill="none" stroke="green" stroke-width="2.00" stroke-linejoin="bevel" points="376.232,1104.23 1226.06,1104.23"/>
<polyline class="StaffLines" fill="none" stroke="green" stroke-width="2.00" stroke-linejoin="bevel" points="376.232,1129.23 1226.06,1129.23"/>
<polyline class="StaffLines" fill="none" stroke="green" stroke-width="2.00" stroke-linejoin="bevel" points="376.232,1154.23 1226.06,1154.23"/>
<polyline class="StaffLines" fill="none" stroke="green" stroke-width="2.00" stroke-linejoin="bevel" points="376.232,1179.23 1226.06,1179.23"/>
<polyline class="StaffLines" fill="none" stroke="green" stroke-width="2.00" stroke-linejoin="bevel" points="376.232,1204.23 1226.06,1204.23"/>
<path class="InstrumentName" stroke="yellow" d="M265.185,1162.9 C265.185,1164.1 264.967,1165.29 264.529,1166.45 C264.092,1167.62 263.362,1168.77 262.342,1169.91 C261.321,1171.05 259.81,1171.98 257.81,1172.68 C255.81,1173.38 253.43,1173.73 250.67,1173.73 L230.639,1173.73 L230.639,1172.59 C233.118,1172.51 234.696,1172.15 235.373,1171.51 C236.05,1170.88 236.389,1169.44 236.389,1167.2 L236.389,1140.56 C236.389,1138.36 236.06,1136.95 235.404,1136.33 C234.748,1135.71 233.159,1135.32 230.639,1135.15 L230.639,1134.01 L247.435,1134.01 C257.915,1134.01 263.154,1137.45 263.154,1144.31 C263.154,1145.62 262.915,1146.79 262.435,1147.81 C261.956,1148.83 261.467,1149.61 260.967,1150.15 C260.467,1150.68 259.696,1151.19 258.654,1151.68 C257.612,1152.16 256.951,1152.43 256.67,1152.49 C256.389,1152.55 255.81,1152.69 254.935,1152.92 C255.852,1153.16 256.54,1153.34 256.998,1153.46 C257.456,1153.58 258.297,1153.92 259.521,1154.47 C260.745,1155.02 261.696,1155.61 262.373,1156.25 C263.05,1156.88 263.688,1157.79 264.287,1158.95 C264.886,1160.12 265.185,1161.44 265.185,1162.9 M246.295,1171.45 C248.097,1171.45 249.657,1171.33 250.974,1171.09 C252.292,1170.85 253.532,1170.44 254.693,1169.87 C255.855,1169.29 256.745,1168.42 257.365,1167.26 C257.985,1166.11 258.295,1164.68 258.295,1162.97 C258.295,1161.33 257.985,1159.95 257.365,1158.81 C256.745,1157.68 255.995,1156.81 255.115,1156.21 C254.235,1155.61 253.014,1155.15 251.451,1154.83 C249.889,1154.52 248.508,1154.33 247.31,1154.26 C246.112,1154.2 244.514,1154.17 242.514,1154.17 L242.514,1169 C242.514,1169.96 242.774,1170.61 243.295,1170.94 C243.816,1171.28 244.816,1171.45 246.295,1171.45 M242.514,1151.89 L248.217,1151.89 C251.008,1151.89 253.175,1151.26 254.717,1149.99 C256.258,1148.73 257.029,1146.91 257.029,1144.55 C257.029,1141.86 256.131,1139.81 254.334,1138.4 C252.537,1137 249.915,1136.3 246.467,1136.3 L243.826,1136.3 C242.951,1136.3 242.514,1136.9 242.514,1138.11 L242.514,1151.89 M269.232,1167.81 C269.232,1167.09 269.313,1166.43 269.474,1165.81 C269.636,1165.2 269.917,1164.62 270.318,1164.08 C270.719,1163.54 271.099,1163.05 271.459,1162.61 C271.818,1162.17 272.357,1161.73 273.076,1161.27 C273.795,1160.82 274.394,1160.44 274.873,1160.14 C275.352,1159.84 276.081,1159.48 277.06,1159.06 C278.04,1158.64 278.79,1158.33 279.31,1158.11 C279.831,1157.89 280.652,1157.56 281.771,1157.12 C282.891,1156.69 283.711,1156.37 284.232,1156.17 L284.232,1152.53 C284.232,1149.23 282.711,1147.58 279.67,1147.58 C278.472,1147.58 277.454,1147.87 276.615,1148.44 C275.777,1149.02 275.357,1149.71 275.357,1150.51 C275.357,1150.84 275.407,1151.28 275.506,1151.83 C275.605,1152.39 275.654,1152.75 275.654,1152.92 C275.654,1153.6 275.383,1154.19 274.842,1154.69 C274.3,1155.19 273.67,1155.44 272.951,1155.44 C272.274,1155.44 271.675,1155.18 271.154,1154.65 C270.633,1154.13 270.373,1153.54 270.373,1152.86 C270.373,1150.97 271.342,1149.38 273.279,1148.08 C275.217,1146.79 277.607,1146.14 280.451,1146.14 C283.732,1146.14 285.993,1146.93 287.232,1148.5 C288.472,1150.07 289.092,1152.47 289.092,1155.69 L289.092,1167.33 C289.092,1168.64 289.222,1169.55 289.482,1170.05 C289.743,1170.55 290.211,1170.8 290.889,1170.8 C291.732,1170.8 292.612,1170.42 293.529,1169.65 L293.529,1171.23 C292.487,1172.43 291.579,1173.25 290.803,1173.68 C290.027,1174.11 289.139,1174.33 288.139,1174.33 C286.899,1174.33 285.987,1173.98 285.404,1173.28 C284.821,1172.58 284.451,1171.44 284.295,1169.84 C280.857,1172.83 277.935,1174.33 275.529,1174.33 C273.696,1174.33 272.188,1173.72 271.006,1172.5 C269.823,1171.28 269.232,1169.72 269.232,1167.81 M284.232,1166.26 L284.232,1157.61 C280.628,1158.92 278.107,1160.19 276.67,1161.42 C275.232,1162.65 274.514,1164.14 274.514,1165.9 C274.514,1167.53 274.912,1168.74 275.709,1169.54 C276.506,1170.33 277.368,1170.73 278.295,1170.73 C279.649,1170.73 281.107,1170.27 282.67,1169.36 C283.316,1169 283.737,1168.63 283.935,1168.23 C284.133,1167.82 284.232,1167.17 284.232,1166.26 M309.81,1147.33 C309.852,1147.33 310.175,1147.13 310.779,1146.73 L311.435,1146.73 L311.67,1154.89 L310.779,1154.89 C310.092,1152.21 309.248,1150.31 308.248,1149.19 C307.248,1148.07 305.889,1147.51 304.17,1147.51 C302.816,1147.51 301.706,1147.89 300.842,1148.65 C299.977,1149.42 299.545,1150.39 299.545,1151.59 C299.545,1153.31 300.409,1154.67 302.139,1155.67 L308.607,1159.51 C310.409,1160.6 311.701,1161.69 312.482,1162.79 C313.264,1163.89 313.654,1165.18 313.654,1166.65 C313.654,1168.74 312.823,1170.54 311.162,1172.05 C309.501,1173.57 307.508,1174.33 305.185,1174.33 C304.185,1174.33 302.847,1174.15 301.17,1173.79 C299.493,1173.43 298.451,1173.25 298.045,1173.25 C297.451,1173.25 296.993,1173.49 296.67,1173.97 L295.889,1173.97 L295.889,1164.61 L296.857,1164.61 C297.493,1167.41 298.253,1169.39 299.139,1170.55 C300.409,1172.19 302.185,1173.01 304.467,1173.01 C305.987,1173.01 307.198,1172.62 308.099,1171.84 C309.001,1171.06 309.451,1170.01 309.451,1168.69 C309.451,1166.89 308.409,1165.39 306.326,1164.19 L302.857,1162.22 C300.295,1160.78 298.482,1159.4 297.42,1158.08 C296.357,1156.75 295.826,1155.25 295.826,1153.58 C295.826,1151.41 296.597,1149.64 298.139,1148.26 C299.68,1146.89 301.633,1146.2 303.998,1146.2 C305.31,1146.2 306.547,1146.39 307.709,1146.76 C308.87,1147.14 309.571,1147.33 309.81,1147.33 M331.81,1147.33 C331.852,1147.33 332.175,1147.13 332.779,1146.73 L333.435,1146.73 L333.67,1154.89 L332.779,1154.89 C332.092,1152.21 331.248,1150.31 330.248,1149.19 C329.248,1148.07 327.889,1147.51 326.17,1147.51 C324.816,1147.51 323.706,1147.89 322.842,1148.65 C321.977,1149.42 321.545,1150.39 321.545,1151.59 C321.545,1153.31 322.409,1154.67 324.139,1155.67 L330.607,1159.51 C332.409,1160.6 333.701,1161.69 334.482,1162.79 C335.264,1163.89 335.654,1165.18 335.654,1166.65 C335.654,1168.74 334.823,1170.54 333.162,1172.05 C331.501,1173.57 329.508,1174.33 327.185,1174.33 C326.185,1174.33 324.847,1174.15 323.17,1173.79 C321.493,1173.43 320.451,1173.25 320.045,1173.25 C319.451,1173.25 318.993,1173.49 318.67,1173.97 L317.889,1173.97 L317.889,1164.61 L318.857,1164.61 C319.493,1167.41 320.253,1169.39 321.139,1170.55 C322.409,1172.19 324.185,1173.01 326.467,1173.01 C327.987,1173.01 329.198,1172.62 330.099,1171.84 C331.001,1171.06 331.451,1170.01 331.451,1168.69 C331.451,1166.89 330.409,1165.39 328.326,1164.19 L324.857,1162.22 C322.295,1160.78 320.482,1159.4 319.42,1158.08 C318.357,1156.75 317.826,1155.25 317.826,1153.58 C317.826,1151.41 318.597,1149.64 320.139,1148.26 C321.68,1146.89 323.633,1146.2 325.998,1146.2 C327.31,1146.2 328.547,1146.39 329.709,1146.76 C330.87,1147.14 331.571,1147.33 331.81,1147.33"/>
<path class="InstrumentName" stroke="yellow" d="M208.857,874.155 L205.607,874.155 C202.253,874.155 200.006,874.608 198.865,875.514 C197.724,876.42 196.795,878.488 196.076,881.717 L194.639,881.717 L194.998,871.514 L228.826,871.514 L229.185,881.717 L227.748,881.717 C227.071,878.446 226.162,876.368 225.021,875.483 C223.881,874.597 221.612,874.155 218.217,874.155 L214.967,874.155 L214.967,904.717 C214.967,906.905 215.308,908.319 215.99,908.959 C216.672,909.6 218.253,909.978 220.732,910.092 L220.732,911.233 L203.217,911.233 L203.217,910.092 C205.696,909.936 207.256,909.527 207.896,908.866 C208.537,908.204 208.857,906.603 208.857,904.061 L208.857,874.155 M235.545,894.608 C235.628,897.087 235.969,899.22 236.568,901.006 C237.167,902.793 237.948,904.126 238.912,905.006 C239.876,905.886 240.847,906.514 241.826,906.889 C242.805,907.264 243.831,907.452 244.904,907.452 C246.831,907.452 248.503,906.98 249.92,906.037 C251.336,905.095 252.769,903.504 254.217,901.264 L255.17,901.686 C253.93,904.967 252.211,907.478 250.014,909.217 C247.816,910.957 245.295,911.827 242.451,911.827 C239.014,911.827 236.284,910.61 234.264,908.178 C232.243,905.746 231.232,902.462 231.232,898.327 C231.232,893.91 232.402,890.358 234.74,887.67 C237.079,884.983 240.092,883.639 243.779,883.639 C246.81,883.639 249.167,884.548 250.849,886.366 C252.532,888.183 253.592,890.931 254.029,894.608 L235.545,894.608 M235.67,892.811 L247.904,892.811 C247.508,890.217 246.891,888.42 246.053,887.42 C245.214,886.42 243.873,885.92 242.029,885.92 C238.435,885.92 236.316,888.217 235.67,892.811 M257.326,887.295 L257.326,886.28 C260.295,885.415 263.055,884.535 265.607,883.639 L266.029,883.748 L266.029,888.436 C268.071,886.54 269.683,885.267 270.865,884.616 C272.047,883.965 273.336,883.639 274.732,883.639 C276.93,883.639 278.659,884.423 279.92,885.991 C281.18,887.558 281.81,889.759 281.81,892.592 L281.81,906.358 C281.81,907.847 282.05,908.842 282.529,909.342 C283.008,909.842 283.987,910.17 285.467,910.327 L285.467,911.233 L272.998,911.233 L272.998,910.327 C274.519,910.212 275.529,909.813 276.029,909.131 C276.529,908.449 276.779,907.165 276.779,905.28 L276.779,892.702 C276.779,888.816 275.316,886.873 272.389,886.873 C271.389,886.873 270.469,887.105 269.631,887.569 C268.792,888.032 267.654,888.941 266.217,890.295 L266.217,907.202 C266.217,908.285 266.495,909.048 267.053,909.491 C267.61,909.933 268.649,910.212 270.17,910.327 L270.17,911.233 L257.451,911.233 L257.451,910.327 C258.972,910.212 259.972,909.863 260.451,909.28 C260.93,908.696 261.17,907.545 261.17,905.827 L261.17,890.905 C261.17,889.415 261.011,888.402 260.693,887.866 C260.376,887.329 259.795,887.061 258.951,887.061 C258.191,887.061 257.649,887.139 257.326,887.295 M300.498,883.639 C304.331,883.639 307.487,884.918 309.967,887.475 C312.446,890.032 313.685,893.274 313.685,897.202 C313.685,901.358 312.407,904.834 309.849,907.631 C307.292,910.428 304.133,911.827 300.373,911.827 C296.612,911.827 293.482,910.478 290.982,907.78 C288.482,905.082 287.232,901.712 287.232,897.67 C287.232,893.556 288.461,890.188 290.92,887.569 C293.378,884.949 296.571,883.639 300.498,883.639 M292.639,894.764 C292.639,899.004 293.417,902.608 294.974,905.577 C296.532,908.545 298.571,910.03 301.092,910.03 C303.331,910.03 305.092,909.079 306.373,907.178 C307.654,905.277 308.295,902.644 308.295,899.28 C308.295,895.196 307.495,891.868 305.896,889.295 C304.297,886.722 302.237,885.436 299.717,885.436 C297.592,885.436 295.881,886.287 294.584,887.991 C293.287,889.694 292.639,891.952 292.639,894.764 M332.795,889.514 C332.191,889.514 331.448,889.134 330.568,888.373 C329.688,887.613 329.107,887.233 328.826,887.233 C328.034,887.233 327.139,887.819 326.139,888.991 C325.139,890.162 324.639,891.228 324.639,892.186 L324.639,905.795 C324.639,907.535 324.977,908.707 325.654,909.311 C326.331,909.915 327.691,910.254 329.732,910.327 L329.732,911.233 L315.326,911.233 L315.326,910.327 C317.253,909.972 318.446,909.571 318.904,909.123 C319.362,908.675 319.592,907.686 319.592,906.155 L319.592,891.045 C319.592,889.712 319.441,888.774 319.139,888.233 C318.836,887.691 318.305,887.42 317.545,887.42 C316.909,887.42 316.211,887.498 315.451,887.655 L315.451,886.717 C318.649,885.728 321.607,884.702 324.326,883.639 L324.639,883.748 L324.639,889.108 C326.118,887.045 327.376,885.618 328.412,884.827 C329.448,884.035 330.586,883.639 331.826,883.639 C332.868,883.639 333.68,883.918 334.264,884.475 C334.847,885.032 335.139,885.811 335.139,886.811 C335.139,887.655 334.928,888.316 334.506,888.795 C334.084,889.274 333.514,889.514 332.795,889.514"/>
<path class="InstrumentName" stroke="yellow" d="M275.092,648.092 L275.092,649.233 L259.795,649.233 L259.795,648.092 C261.389,648.05 262.487,647.891 263.092,647.615 C263.696,647.339 263.998,646.826 263.998,646.076 C263.998,645.139 263.618,643.821 262.857,642.123 L260.389,636.451 L244.67,636.451 L241.904,643.373 C241.592,644.196 241.435,644.962 241.435,645.67 C241.435,647.285 242.795,648.092 245.514,648.092 L245.514,649.233 L233.639,649.233 L233.639,648.092 C235.118,648.009 236.266,647.438 237.084,646.381 C237.902,645.324 239.232,642.613 241.076,638.248 L253.545,608.795 L254.748,608.795 L269.685,642.873 C270.654,645.071 271.456,646.47 272.092,647.069 C272.727,647.667 273.727,648.009 275.092,648.092 M245.685,633.811 L259.545,633.811 L252.592,617.311 L245.685,633.811 M276.326,611.858 L276.326,610.889 C280.295,609.931 283.477,609.05 285.873,608.248 L286.107,608.373 L286.107,644.186 C286.107,645.832 286.378,646.904 286.92,647.404 C287.461,647.904 288.691,648.212 290.607,648.326 L290.607,649.233 L276.451,649.233 L276.451,648.326 C278.336,648.17 279.579,647.813 280.178,647.256 C280.777,646.699 281.076,645.618 281.076,644.014 L281.076,615.389 C281.076,613.993 280.896,613.035 280.537,612.514 C280.178,611.993 279.514,611.733 278.545,611.733 C277.753,611.733 277.014,611.774 276.326,611.858 M306.279,622.233 L306.279,624.029 L300.217,624.029 L300.217,641.186 C300.217,643.071 300.456,644.444 300.935,645.303 C301.415,646.162 302.211,646.592 303.326,646.592 C304.566,646.592 305.769,645.894 306.935,644.498 L307.717,645.154 C305.79,648.269 303.389,649.826 300.514,649.826 C296.951,649.826 295.17,647.274 295.17,642.17 L295.17,624.029 L291.998,624.029 C291.831,623.915 291.748,623.785 291.748,623.639 C291.748,623.451 291.808,623.3 291.928,623.186 C292.047,623.071 292.279,622.912 292.623,622.709 C292.967,622.506 293.378,622.212 293.857,621.826 C294.336,621.441 294.995,620.74 295.834,619.725 C296.672,618.709 297.592,617.493 298.592,616.076 C299.227,615.139 299.628,614.571 299.795,614.373 C300.076,614.373 300.217,614.639 300.217,615.17 L300.217,622.233 L306.279,622.233 M322.498,621.639 C326.331,621.639 329.487,622.917 331.967,625.475 C334.446,628.032 335.685,631.274 335.685,635.201 C335.685,639.358 334.407,642.834 331.849,645.631 C329.292,648.428 326.133,649.826 322.373,649.826 C318.612,649.826 315.482,648.477 312.982,645.779 C310.482,643.082 309.232,639.712 309.232,635.67 C309.232,631.556 310.461,628.188 312.92,625.569 C315.378,622.949 318.571,621.639 322.498,621.639 M314.639,632.764 C314.639,637.003 315.417,640.608 316.974,643.576 C318.532,646.545 320.571,648.029 323.092,648.029 C325.331,648.029 327.092,647.079 328.373,645.178 C329.654,643.277 330.295,640.644 330.295,637.279 C330.295,633.196 329.495,629.868 327.896,627.295 C326.297,624.722 324.237,623.436 321.717,623.436 C319.592,623.436 317.881,624.287 316.584,625.99 C315.287,627.694 314.639,629.951 314.639,632.764"/>
<path class="InstrumentName" stroke="yellow" d="M163.404,372.482 C163.404,370.618 162.745,368.959 161.428,367.506 C160.11,366.053 158.511,364.808 156.631,363.771 C154.751,362.735 152.881,361.67 151.021,360.576 C149.162,359.482 147.573,358.079 146.256,356.365 C144.938,354.652 144.279,352.66 144.279,350.389 C144.279,347.316 145.308,344.816 147.365,342.889 C149.422,340.962 151.852,339.998 154.654,339.998 C156.331,339.998 158.149,340.363 160.107,341.092 C162.066,341.821 163.248,342.186 163.654,342.186 C164.696,342.186 165.336,341.456 165.576,339.998 L166.826,339.998 L168.154,352.779 L166.654,352.779 C165.696,349.321 164.227,346.766 162.248,345.115 C160.269,343.464 158.076,342.639 155.67,342.639 C153.826,342.639 152.326,343.154 151.17,344.186 C150.014,345.217 149.435,346.55 149.435,348.186 C149.435,349.779 150.115,351.292 151.474,352.725 C152.834,354.157 155.092,355.748 158.248,357.498 C162.206,359.613 165.066,361.693 166.826,363.74 C168.586,365.787 169.467,368.045 169.467,370.514 C169.467,373.639 168.287,376.264 165.928,378.389 C163.568,380.514 160.67,381.576 157.232,381.576 C155.232,381.576 153.201,381.206 151.139,380.467 C149.076,379.727 147.805,379.357 147.326,379.357 C146.889,379.357 146.511,379.566 146.193,379.982 C145.876,380.399 145.696,380.91 145.654,381.514 L144.326,381.514 L142.529,368.67 L143.92,368.67 C145.399,372.285 147.118,374.949 149.076,376.662 C151.034,378.376 153.352,379.232 156.029,379.232 C158.227,379.232 160.006,378.605 161.365,377.35 C162.724,376.094 163.404,374.472 163.404,372.482 M187.498,353.139 C191.331,353.139 194.487,354.417 196.967,356.975 C199.446,359.532 200.685,362.774 200.685,366.701 C200.685,370.857 199.407,374.334 196.849,377.131 C194.292,379.928 191.133,381.326 187.373,381.326 C183.612,381.326 180.482,379.977 177.982,377.279 C175.482,374.581 174.232,371.212 174.232,367.17 C174.232,363.055 175.461,359.688 177.92,357.068 C180.378,354.449 183.571,353.139 187.498,353.139 M179.639,364.264 C179.639,368.503 180.417,372.107 181.974,375.076 C183.532,378.045 185.571,379.529 188.092,379.529 C190.331,379.529 192.092,378.579 193.373,376.678 C194.654,374.777 195.295,372.144 195.295,368.779 C195.295,364.696 194.495,361.368 192.896,358.795 C191.297,356.222 189.237,354.936 186.717,354.936 C184.592,354.936 182.881,355.787 181.584,357.49 C180.287,359.193 179.639,361.451 179.639,364.264 M202.576,357.154 L202.576,356.201 C205.097,355.441 207.977,354.42 211.217,353.139 L211.576,353.248 L211.576,357.873 C214.128,354.717 217.008,353.139 220.217,353.139 C223.133,353.139 225.532,354.342 227.412,356.748 C229.292,359.154 230.232,362.227 230.232,365.967 C230.232,370.311 229.021,373.956 226.599,376.904 C224.178,379.852 221.191,381.326 217.639,381.326 C216.357,381.326 215.287,381.154 214.428,380.811 C213.568,380.467 212.618,379.821 211.576,378.873 L211.576,388.217 C211.576,390.081 211.896,391.279 212.537,391.811 C213.178,392.342 214.618,392.628 216.857,392.67 L216.857,393.748 L202.326,393.748 L202.326,392.732 C204.086,392.576 205.227,392.238 205.748,391.717 C206.269,391.196 206.529,390.154 206.529,388.592 L206.529,360.514 C206.529,359.118 206.37,358.199 206.053,357.756 C205.735,357.313 205.076,357.092 204.076,357.092 C203.43,357.092 202.93,357.113 202.576,357.154 M211.576,360.717 L211.576,375.545 C211.576,376.43 212.266,377.316 213.646,378.201 C215.027,379.087 216.415,379.529 217.81,379.529 C219.967,379.529 221.717,378.495 223.06,376.428 C224.404,374.36 225.076,371.654 225.076,368.311 C225.076,364.811 224.404,362.006 223.06,359.896 C221.717,357.787 219.925,356.732 217.685,356.732 C216.29,356.732 214.922,357.175 213.584,358.061 C212.245,358.946 211.576,359.831 211.576,360.717 M249.795,359.014 C249.191,359.014 248.448,358.633 247.568,357.873 C246.688,357.113 246.107,356.732 245.826,356.732 C245.034,356.732 244.139,357.318 243.139,358.49 C242.139,359.662 241.639,360.727 241.639,361.686 L241.639,375.295 C241.639,377.035 241.977,378.206 242.654,378.811 C243.331,379.415 244.691,379.753 246.732,379.826 L246.732,380.732 L232.326,380.732 L232.326,379.826 C234.253,379.472 235.446,379.071 235.904,378.623 C236.362,378.175 236.592,377.186 236.592,375.654 L236.592,360.545 C236.592,359.212 236.441,358.274 236.139,357.732 C235.836,357.191 235.305,356.92 234.545,356.92 C233.909,356.92 233.211,356.998 232.451,357.154 L232.451,356.217 C235.649,355.227 238.607,354.201 241.326,353.139 L241.639,353.248 L241.639,358.607 C243.118,356.545 244.376,355.118 245.412,354.326 C246.448,353.535 247.586,353.139 248.826,353.139 C249.868,353.139 250.68,353.417 251.264,353.975 C251.847,354.532 252.139,355.311 252.139,356.311 C252.139,357.154 251.928,357.816 251.506,358.295 C251.084,358.774 250.514,359.014 249.795,359.014 M254.232,374.811 C254.232,374.092 254.313,373.425 254.474,372.811 C254.636,372.196 254.917,371.618 255.318,371.076 C255.719,370.535 256.099,370.045 256.459,369.607 C256.818,369.17 257.357,368.725 258.076,368.271 C258.795,367.818 259.394,367.441 259.873,367.139 C260.352,366.837 261.081,366.477 262.06,366.061 C263.04,365.644 263.79,365.326 264.31,365.107 C264.831,364.889 265.652,364.561 266.771,364.123 C267.891,363.686 268.711,363.368 269.232,363.17 L269.232,359.529 C269.232,356.227 267.711,354.576 264.67,354.576 C263.472,354.576 262.454,354.865 261.615,355.443 C260.777,356.021 260.357,356.712 260.357,357.514 C260.357,357.837 260.407,358.277 260.506,358.834 C260.605,359.391 260.654,359.753 260.654,359.92 C260.654,360.597 260.383,361.186 259.842,361.686 C259.3,362.186 258.67,362.436 257.951,362.436 C257.274,362.436 256.675,362.175 256.154,361.654 C255.633,361.133 255.373,360.535 255.373,359.857 C255.373,357.972 256.342,356.381 258.279,355.084 C260.217,353.787 262.607,353.139 265.451,353.139 C268.732,353.139 270.993,353.925 272.232,355.498 C273.472,357.071 274.092,359.467 274.092,362.686 L274.092,374.326 C274.092,375.639 274.222,376.545 274.482,377.045 C274.743,377.545 275.211,377.795 275.889,377.795 C276.732,377.795 277.612,377.415 278.529,376.654 L278.529,378.232 C277.487,379.43 276.579,380.245 275.803,380.678 C275.027,381.11 274.139,381.326 273.139,381.326 C271.899,381.326 270.987,380.977 270.404,380.279 C269.821,379.581 269.451,378.436 269.295,376.842 C265.857,379.831 262.935,381.326 260.529,381.326 C258.696,381.326 257.188,380.717 256.006,379.498 C254.823,378.279 254.232,376.717 254.232,374.811 M269.232,373.264 L269.232,364.607 C265.628,365.92 263.107,367.191 261.67,368.42 C260.232,369.649 259.514,371.144 259.514,372.904 C259.514,374.529 259.912,375.74 260.709,376.537 C261.506,377.334 262.368,377.732 263.295,377.732 C264.649,377.732 266.107,377.274 267.67,376.357 C268.316,376.003 268.737,375.626 268.935,375.225 C269.133,374.824 269.232,374.17 269.232,373.264 M279.326,356.795 L279.326,355.779 C282.295,354.915 285.055,354.035 287.607,353.139 L288.029,353.248 L288.029,357.936 C290.071,356.04 291.683,354.766 292.865,354.115 C294.047,353.464 295.336,353.139 296.732,353.139 C298.93,353.139 300.659,353.923 301.92,355.49 C303.18,357.058 303.81,359.258 303.81,362.092 L303.81,375.857 C303.81,377.347 304.05,378.342 304.529,378.842 C305.008,379.342 305.987,379.67 307.467,379.826 L307.467,380.732 L294.998,380.732 L294.998,379.826 C296.519,379.712 297.529,379.313 298.029,378.631 C298.529,377.949 298.779,376.665 298.779,374.779 L298.779,362.201 C298.779,358.316 297.316,356.373 294.389,356.373 C293.389,356.373 292.469,356.605 291.631,357.068 C290.792,357.532 289.654,358.441 288.217,359.795 L288.217,376.701 C288.217,377.785 288.495,378.548 289.053,378.99 C289.61,379.433 290.649,379.712 292.17,379.826 L292.17,380.732 L279.451,380.732 L279.451,379.826 C280.972,379.712 281.972,379.363 282.451,378.779 C282.93,378.196 283.17,377.045 283.17,375.326 L283.17,360.404 C283.17,358.915 283.011,357.902 282.693,357.365 C282.376,356.829 281.795,356.561 280.951,356.561 C280.191,356.561 279.649,356.639 279.326,356.795 M322.498,353.139 C326.331,353.139 329.487,354.417 331.967,356.975 C334.446,359.532 335.685,362.774 335.685,366.701 C335.685,370.857 334.407,374.334 331.849,377.131 C329.292,379.928 326.133,381.326 322.373,381.326 C318.612,381.326 315.482,379.977 312.982,377.279 C310.482,374.581 309.232,371.212 309.232,367.17 C309.232,363.055 310.461,359.688 312.92,357.068 C315.378,354.449 318.571,353.139 322.498,353.139 M314.639,364.264 C314.639,368.503 315.417,372.107 316.974,375.076 C318.532,378.045 320.571,379.529 323.092,379.529 C325.331,379.529 327.092,378.579 328.373,376.678 C329.654,374.777 330.295,372.144 330.295,368.779 C330.295,364.696 329.495,361.368 327.896,358.795 C326.297,356.222 324.237,354.936 321.717,354.936 C319.592,354.936 317.881,355.787 316.584,357.49 C315.287,359.193 314.639,361.451 314.639,364.264"/>
<polyline class="BarLine" fill="none" stroke="blue" stroke-width="4.00" stroke-linejoin="bevel" points="378.232,1103.23 378.232,1205.23"/>
<polyline class="BarLine" fill="none" stroke="blue" stroke-width="4.00" stroke-linejoin="bevel" points="1201.56,1103.23 1201.56,1205.23"/>
<polyline class="BarLine" fill="none" stroke="blue" stroke-width="12.50" stroke-linejoin="bevel" points="1219.81,1103.23 1219.81,1205.23"/>
<polyline class="BarLine" fill="none" stroke="blue" stroke-width="4.00" stroke-linejoin="bevel" points="378.232,840.733 378.232,1104.23"/>
<polyline class="BarLine" fill="none" stroke="blue" stroke-width="4.00" stroke-linejoin="bevel" points="1201.56,840.733 1201.56,942.733"/>
<polyline class="BarLine" fill="none" stroke="blue" stroke-width="12.50" stroke-linejoin="bevel" points="1219.81,840.733 1219.81,942.733"/>
<polyline class="BarLine" fill="none" stroke="blue" stroke-width="4.00" stroke-linejoin="bevel" points="378.232,578.233 378.232,841.733"/>
<polyline class="BarLine" fill="none" stroke="blue" stroke-width="4.00" stroke-linejoin="bevel" points="1201.56,578.233 1201.56,680.233"/>
<polyline class="BarLine" fill="none" stroke="blue" stroke-width="12.50" stroke-linejoin="bevel" points="1219.81,578.233 1219.81,680.233"/>
<polyline class="BarLine" fill="none" stroke="blue" stroke-width="4.00" stroke-linejoin="bevel" points="378.232,315.732 378.232,579.233"/>
<polyline class="BarLine" fill="none" stroke="blue" stroke-width="4.00" stroke-linejoin="bevel" points="1201.56,315.732 1201.56,417.732"/>
<polyline class="BarLine" fill="none" stroke="blue" stroke-width="12.50" stroke-linejoin="bevel" points="1219.81,315.732 1219.81,417.732"/>
<path class="Clef" stroke="pink" d="M458.639,1120.34 C457.665,1119.36 457.178,1118.16 457.178,1116.73 C457.178,1115.29 457.665,1114.09 458.639,1113.12 C459.613,1112.14 460.816,1111.65 462.248,1111.65 C463.68,1111.65 464.886,1112.14 465.865,1113.12 C466.844,1114.09 467.334,1115.29 467.334,1116.73 C467.334,1118.16 466.844,1119.36 465.865,1120.34 C464.886,1121.32 463.68,1121.81 462.248,1121.81 C460.816,1121.81 459.613,1121.32 458.639,1120.34 M458.639,1145.35 C457.665,1144.38 457.178,1143.17 457.178,1141.74 C457.178,1140.31 457.665,1139.1 458.639,1138.12 C459.613,1137.14 460.816,1136.65 462.248,1136.65 C463.68,1136.65 464.886,1137.14 465.865,1138.12 C466.844,1139.1 467.334,1140.31 467.334,1141.74 C467.334,1143.17 466.844,1144.38 465.865,1145.35 C464.886,1146.32 463.68,1146.81 462.248,1146.81 C460.816,1146.81 459.613,1146.32 458.639,1145.35 M424.756,1102.97 C433.412,1102.97 440.506,1105.14 446.037,1109.5 C451.381,1114.06 454.053,1120.25 454.053,1128.06 C454.053,1133.33 453.011,1138.15 450.928,1142.51 C448.969,1147.08 446.396,1151.11 443.209,1154.62 C439.948,1158.21 436.011,1161.59 431.396,1164.78 C426.896,1167.9 422.271,1170.71 417.521,1173.19 C407.823,1178.06 402.485,1180.5 401.506,1180.5 C400.662,1180.5 400.24,1180.08 400.24,1179.23 C400.24,1178.91 400.37,1178.62 400.631,1178.36 C403.954,1176.4 408.021,1173.89 412.834,1170.84 C415.959,1168.82 419.605,1166.02 423.771,1162.44 C427.813,1159.05 430.938,1155.86 433.146,1152.87 C435.428,1149.94 437.511,1146.29 439.396,1141.94 C441.021,1137.57 441.834,1133.27 441.834,1129.03 C441.834,1122.72 440.271,1117.22 437.146,1112.53 C434.021,1107.84 429.891,1105.5 424.756,1105.5 C421.11,1105.5 417.985,1106.67 415.381,1109.01 C412.579,1111.42 410.558,1114.45 409.318,1118.09 C410.558,1117.57 411.698,1117.31 412.74,1117.31 C415.469,1117.31 417.813,1118.29 419.771,1120.25 C421.719,1122.33 422.693,1124.71 422.693,1127.37 C422.693,1130.18 421.751,1132.69 419.865,1134.9 C417.844,1136.92 415.469,1137.92 412.74,1137.92 C409.813,1137.92 407.178,1136.92 404.834,1134.9 C402.615,1132.69 401.506,1130.18 401.506,1127.37 C401.506,1120.67 403.787,1114.94 408.35,1110.19 C412.839,1105.37 418.308,1102.97 424.756,1102.97"/>
<path class="Clef" stroke="pink" d="M438.225,891.139 C438.225,891.139 438.422,891.139 438.818,891.139 C439.079,891.077 439.303,891.045 439.49,891.045 C446.782,891.045 452.771,893.618 457.459,898.764 C462.146,903.837 464.49,909.759 464.49,916.53 C464.49,924.936 461.011,931.774 454.053,937.045 C452.23,938.483 449.85,939.655 446.912,940.561 C447.245,944.79 447.412,948.207 447.412,950.811 C447.412,951.332 447.344,953.222 447.209,956.483 C446.948,962.535 444.865,967.774 440.959,972.202 C437.188,976.566 432.501,978.748 426.896,978.748 C421.626,978.748 417.136,976.894 413.428,973.186 C409.709,969.405 407.85,964.847 407.85,959.514 C407.85,956.712 408.928,954.332 411.084,952.373 C413.292,950.425 415.86,949.452 418.787,949.452 C421.391,949.452 423.573,950.462 425.334,952.483 C427.157,954.368 428.068,956.712 428.068,959.514 C428.068,962.045 427.157,964.222 425.334,966.045 C423.511,967.868 421.329,968.78 418.787,968.78 C417.745,968.78 416.74,968.587 415.771,968.202 C418.636,972.431 422.443,974.545 427.193,974.545 C431.683,974.545 435.36,972.722 438.225,969.077 C441.225,965.306 442.855,960.91 443.115,955.889 C443.24,952.764 443.303,950.978 443.303,950.53 C443.303,946.884 443.172,943.889 442.912,941.545 C439.662,942.066 436.766,942.327 434.225,942.327 C425.172,942.327 417.459,938.743 411.084,931.577 C404.834,924.347 401.709,915.754 401.709,905.795 C401.709,903.712 401.902,901.597 402.287,899.452 C402.683,897.691 403.172,895.769 403.756,893.686 C404.079,892.509 404.959,890.618 406.396,888.014 C406.917,887.233 407.503,886.256 408.154,885.084 C408.805,883.912 409.261,883.134 409.521,882.748 C410.167,881.446 411.433,879.686 413.318,877.467 C413.839,876.884 414.378,876.235 414.935,875.522 C415.493,874.808 415.967,874.222 416.357,873.764 C416.748,873.306 417.04,872.946 417.232,872.686 C417.425,872.425 418.891,870.702 421.631,867.514 C422.277,866.858 422.909,866.157 423.529,865.412 C424.149,864.668 424.654,864.082 425.045,863.655 C425.435,863.228 425.73,862.92 425.928,862.733 C423.584,854.983 422.115,848.795 421.521,844.17 C421.073,840.462 420.85,835.384 420.85,828.936 C420.85,823.269 422.152,817.962 424.756,813.014 C427.287,807.879 430.834,803.681 435.396,800.42 C435.657,800.222 435.98,800.123 436.365,800.123 C436.823,800.123 437.152,800.222 437.35,800.42 C440.86,804.649 443.886,810.149 446.428,816.92 C449.032,823.691 450.334,829.847 450.334,835.389 C450.334,841.639 448.839,847.498 445.85,852.967 C442.464,858.759 438.1,864.748 432.756,870.936 C434.12,875.228 435.943,881.962 438.225,891.139 M446.521,936.561 C449.907,935.321 452.547,933.207 454.443,930.217 C456.527,927.353 457.568,924.129 457.568,920.545 C457.568,915.92 456.006,911.816 452.881,908.233 C449.683,904.524 445.61,902.441 440.662,901.983 C443.464,915.722 445.417,927.248 446.521,936.561 M408.74,913.998 C408.74,920.446 411.344,926.113 416.553,930.998 C421.886,935.748 427.876,938.123 434.521,938.123 C437.251,938.123 439.917,937.925 442.521,937.53 C441.48,927.634 439.428,915.785 436.365,901.983 C432.657,902.379 429.698,903.681 427.49,905.889 C425.334,908.17 424.256,910.743 424.256,913.608 C424.256,918.556 426.896,922.561 432.178,925.623 C432.626,926.082 432.85,926.571 432.85,927.092 C432.85,927.613 432.626,928.097 432.178,928.545 C431.782,929.004 431.292,929.233 430.709,929.233 C430.646,929.233 430.355,929.17 429.834,929.045 C426.115,927.024 423.251,924.42 421.24,921.233 C419.344,917.837 418.396,914.415 418.396,910.967 C418.396,906.478 419.797,902.41 422.6,898.764 C425.527,895.118 429.334,892.774 434.021,891.733 C432.198,884.441 430.704,878.743 429.537,874.639 C428.495,875.816 427.243,877.233 425.779,878.889 C424.316,880.545 423.454,881.54 423.193,881.873 C420.85,884.925 419.058,887.3 417.818,888.998 C415.6,892.061 413.969,894.696 412.928,896.905 C411.823,899.384 410.85,902.087 410.006,905.014 C409.162,907.816 408.74,910.811 408.74,913.998 M441.35,814.686 C436.464,817.092 432.626,820.54 429.834,825.03 C426.969,829.655 425.537,834.634 425.537,839.967 C425.537,844.655 426.709,850.972 429.053,858.92 C433.74,853.254 437.256,848.014 439.6,843.202 C442.068,838.118 443.303,832.811 443.303,827.28 C443.303,823.113 442.652,818.915 441.35,814.686 M430.615,992.905 C432.303,991.217 433.146,989.524 433.146,987.827 C433.021,986.462 432.438,985.42 431.396,984.702 C430.219,983.92 428.85,983.53 427.287,983.53 C426.183,983.53 425.271,983.889 424.553,984.608 C423.907,985.254 423.584,986.066 423.584,987.045 C423.584,988.222 424.068,989.103 425.037,989.686 L430.615,992.905 M432.178,993.78 C434.907,995.28 436.271,997.3 436.271,999.842 L436.271,1000.14 C436.271,1002.15 435.459,1003.84 433.834,1005.22 C432.209,1006.64 429.896,1007.36 426.896,1007.36 C424.428,1007.36 422.282,1006.71 420.459,1005.4 C418.636,1004.17 417.725,1002.47 417.725,1000.33 C417.725,999.483 417.948,998.702 418.396,997.983 C418.917,997.139 419.344,996.556 419.678,996.233 C419.74,996.16 419.886,996.011 420.115,995.787 C420.344,995.564 420.571,995.337 420.795,995.108 C421.019,994.879 421.261,994.634 421.521,994.373 C419.511,993.009 418.506,991.217 418.506,988.998 C418.506,987.238 419.287,985.675 420.85,984.311 C422.475,983.009 424.62,982.358 427.287,982.358 C429.506,982.358 431.396,982.847 432.959,983.827 C434.521,984.806 435.303,986.139 435.303,987.827 C435.303,989.587 434.261,991.571 432.178,993.78 M422.99,995.248 C421.042,996.946 420.001,998.639 419.865,1000.33 C420.001,1002.09 420.719,1003.49 422.021,1004.53 C423.448,1005.63 425.073,1006.19 426.896,1006.19 C428.198,1006.19 429.24,1005.76 430.021,1004.92 C430.803,1004.14 431.193,1003.2 431.193,1002.09 C431.131,1000.65 430.547,999.613 429.443,998.967 L422.99,995.248 "/>
<path class="Clef" stroke="pink" d="M438.225,628.639 C438.225,628.639 438.422,628.639 438.818,628.639 C439.079,628.576 439.303,628.545 439.49,628.545 C446.782,628.545 452.771,631.118 457.459,636.264 C462.146,641.337 464.49,647.259 464.49,654.029 C464.49,662.436 461.011,669.274 454.053,674.545 C452.23,675.983 449.85,677.154 446.912,678.061 C447.245,682.29 447.412,685.707 447.412,688.311 C447.412,688.832 447.344,690.722 447.209,693.983 C446.948,700.035 444.865,705.274 440.959,709.701 C437.188,714.066 432.501,716.248 426.896,716.248 C421.626,716.248 417.136,714.394 413.428,710.686 C409.709,706.904 407.85,702.347 407.85,697.014 C407.85,694.212 408.928,691.832 411.084,689.873 C413.292,687.925 415.86,686.951 418.787,686.951 C421.391,686.951 423.573,687.962 425.334,689.983 C427.157,691.868 428.068,694.212 428.068,697.014 C428.068,699.545 427.157,701.722 425.334,703.545 C423.511,705.368 421.329,706.279 418.787,706.279 C417.745,706.279 416.74,706.087 415.771,705.701 C418.636,709.931 422.443,712.045 427.193,712.045 C431.683,712.045 435.36,710.222 438.225,706.576 C441.225,702.806 442.855,698.41 443.115,693.389 C443.24,690.264 443.303,688.477 443.303,688.029 C443.303,684.384 443.172,681.389 442.912,679.045 C439.662,679.566 436.766,679.826 434.225,679.826 C425.172,679.826 417.459,676.243 411.084,669.076 C404.834,661.847 401.709,653.253 401.709,643.295 C401.709,641.212 401.902,639.097 402.287,636.951 C402.683,635.191 403.172,633.269 403.756,631.186 C404.079,630.009 404.959,628.118 406.396,625.514 C406.917,624.733 407.503,623.756 408.154,622.584 C408.805,621.412 409.261,620.634 409.521,620.248 C410.167,618.946 411.433,617.186 413.318,614.967 C413.839,614.384 414.378,613.735 414.935,613.022 C415.493,612.308 415.967,611.722 416.357,611.264 C416.748,610.806 417.04,610.446 417.232,610.186 C417.425,609.925 418.891,608.201 421.631,605.014 C422.277,604.358 422.909,603.657 423.529,602.912 C424.149,602.168 424.654,601.582 425.045,601.154 C425.435,600.727 425.73,600.42 425.928,600.233 C423.584,592.483 422.115,586.295 421.521,581.67 C421.073,577.962 420.85,572.884 420.85,566.436 C420.85,560.769 422.152,555.462 424.756,550.514 C427.287,545.378 430.834,541.181 435.396,537.92 C435.657,537.722 435.98,537.623 436.365,537.623 C436.823,537.623 437.152,537.722 437.35,537.92 C440.86,542.149 443.886,547.649 446.428,554.42 C449.032,561.191 450.334,567.347 450.334,572.889 C450.334,579.139 448.839,584.998 445.85,590.467 C442.464,596.259 438.1,602.248 432.756,608.436 C434.12,612.727 435.943,619.462 438.225,628.639 M446.521,674.061 C449.907,672.821 452.547,670.707 454.443,667.717 C456.527,664.852 457.568,661.628 457.568,658.045 C457.568,653.42 456.006,649.316 452.881,645.733 C449.683,642.024 445.61,639.941 440.662,639.483 C443.464,653.222 445.417,664.748 446.521,674.061 M408.74,651.498 C408.74,657.946 411.344,663.613 416.553,668.498 C421.886,673.248 427.876,675.623 434.521,675.623 C437.251,675.623 439.917,675.425 442.521,675.029 C441.48,665.134 439.428,653.285 436.365,639.483 C432.657,639.878 429.698,641.181 427.49,643.389 C425.334,645.67 424.256,648.243 424.256,651.108 C424.256,656.056 426.896,660.061 432.178,663.123 C432.626,663.582 432.85,664.071 432.85,664.592 C432.85,665.113 432.626,665.597 432.178,666.045 C431.782,666.503 431.292,666.733 430.709,666.733 C430.646,666.733 430.355,666.67 429.834,666.545 C426.115,664.524 423.251,661.92 421.24,658.733 C419.344,655.337 418.396,651.915 418.396,648.467 C418.396,643.977 419.797,639.91 422.6,636.264 C425.527,632.618 429.334,630.274 434.021,629.233 C432.198,621.941 430.704,616.243 429.537,612.139 C428.495,613.316 427.243,614.733 425.779,616.389 C424.316,618.045 423.454,619.04 423.193,619.373 C420.85,622.425 419.058,624.8 417.818,626.498 C415.6,629.561 413.969,632.196 412.928,634.404 C411.823,636.884 410.85,639.587 410.006,642.514 C409.162,645.316 408.74,648.311 408.74,651.498 M441.35,552.186 C436.464,554.592 432.626,558.04 429.834,562.529 C426.969,567.154 425.537,572.134 425.537,577.467 C425.537,582.154 426.709,588.472 429.053,596.42 C433.74,590.753 437.256,585.514 439.6,580.701 C442.068,575.618 443.303,570.311 443.303,564.779 C443.303,560.613 442.652,556.415 441.35,552.186"/>
<path class="Clef" stroke="pink" d="M438.225,366.139 C438.225,366.139 438.422,366.139 438.818,366.139 C439.079,366.076 439.303,366.045 439.49,366.045 C446.782,366.045 452.771,368.618 457.459,373.764 C462.146,378.837 464.49,384.758 464.49,391.529 C464.49,399.936 461.011,406.774 454.053,412.045 C452.23,413.482 449.85,414.654 446.912,415.561 C447.245,419.79 447.412,423.206 447.412,425.811 C447.412,426.331 447.344,428.222 447.209,431.482 C446.948,437.535 444.865,442.774 440.959,447.201 C437.188,451.566 432.501,453.748 426.896,453.748 C421.626,453.748 417.136,451.894 413.428,448.186 C409.709,444.404 407.85,439.847 407.85,434.514 C407.85,431.712 408.928,429.331 411.084,427.373 C413.292,425.425 415.86,424.451 418.787,424.451 C421.391,424.451 423.573,425.462 425.334,427.482 C427.157,429.368 428.068,431.712 428.068,434.514 C428.068,437.045 427.157,439.222 425.334,441.045 C423.511,442.868 421.329,443.779 418.787,443.779 C417.745,443.779 416.74,443.587 415.771,443.201 C418.636,447.43 422.443,449.545 427.193,449.545 C431.683,449.545 435.36,447.722 438.225,444.076 C441.225,440.305 442.855,435.91 443.115,430.889 C443.24,427.764 443.303,425.977 443.303,425.529 C443.303,421.883 443.172,418.889 442.912,416.545 C439.662,417.066 436.766,417.326 434.225,417.326 C425.172,417.326 417.459,413.743 411.084,406.576 C404.834,399.347 401.709,390.753 401.709,380.795 C401.709,378.712 401.902,376.597 402.287,374.451 C402.683,372.691 403.172,370.769 403.756,368.686 C404.079,367.508 404.959,365.618 406.396,363.014 C406.917,362.232 407.503,361.256 408.154,360.084 C408.805,358.912 409.261,358.133 409.521,357.748 C410.167,356.446 411.433,354.686 413.318,352.467 C413.839,351.883 414.378,351.235 414.935,350.522 C415.493,349.808 415.967,349.222 416.357,348.764 C416.748,348.305 417.04,347.946 417.232,347.686 C417.425,347.425 418.891,345.701 421.631,342.514 C422.277,341.857 422.909,341.157 423.529,340.412 C424.149,339.667 424.654,339.081 425.045,338.654 C425.435,338.227 425.73,337.92 425.928,337.732 C423.584,329.982 422.115,323.795 421.521,319.17 C421.073,315.462 420.85,310.383 420.85,303.936 C420.85,298.269 422.152,292.962 424.756,288.014 C427.287,282.878 430.834,278.68 435.396,275.42 C435.657,275.222 435.98,275.123 436.365,275.123 C436.823,275.123 437.152,275.222 437.35,275.42 C440.86,279.649 443.886,285.149 446.428,291.92 C449.032,298.691 450.334,304.847 450.334,310.389 C450.334,316.639 448.839,322.498 445.85,327.967 C442.464,333.758 438.1,339.748 432.756,345.936 C434.12,350.227 435.943,356.962 438.225,366.139 M446.521,411.561 C449.907,410.321 452.547,408.206 454.443,405.217 C456.527,402.352 457.568,399.128 457.568,395.545 C457.568,390.92 456.006,386.816 452.881,383.232 C449.683,379.524 445.61,377.441 440.662,376.982 C443.464,390.722 445.417,402.248 446.521,411.561 M408.74,388.998 C408.74,395.446 411.344,401.113 416.553,405.998 C421.886,410.748 427.876,413.123 434.521,413.123 C437.251,413.123 439.917,412.925 442.521,412.529 C441.48,402.633 439.428,390.785 436.365,376.982 C432.657,377.378 429.698,378.68 427.49,380.889 C425.334,383.17 424.256,385.743 424.256,388.607 C424.256,393.555 426.896,397.561 432.178,400.623 C432.626,401.081 432.85,401.571 432.85,402.092 C432.85,402.613 432.626,403.097 432.178,403.545 C431.782,404.003 431.292,404.232 430.709,404.232 C430.646,404.232 430.355,404.17 429.834,404.045 C426.115,402.024 423.251,399.42 421.24,396.232 C419.344,392.837 418.396,389.415 418.396,385.967 C418.396,381.477 419.797,377.41 422.6,373.764 C425.527,370.118 429.334,367.774 434.021,366.732 C432.198,359.441 430.704,353.743 429.537,349.639 C428.495,350.816 427.243,352.232 425.779,353.889 C424.316,355.545 423.454,356.54 423.193,356.873 C420.85,359.925 419.058,362.3 417.818,363.998 C415.6,367.061 413.969,369.696 412.928,371.904 C411.823,374.383 410.85,377.087 410.006,380.014 C409.162,382.816 408.74,385.811 408.74,388.998 M441.35,289.686 C436.464,292.092 432.626,295.54 429.834,300.029 C426.969,304.654 425.537,309.633 425.537,314.967 C425.537,319.654 426.709,325.972 429.053,333.92 C433.74,328.253 437.256,323.014 439.6,318.201 C442.068,313.118 443.303,307.811 443.303,302.279 C443.303,298.113 442.652,293.915 441.35,289.686"/>
<path class="TimeSig" fill="fuchsia" d="M514.959,1105.41 C516.907,1105.41 518.566,1105.19 519.935,1104.73 C521.305,1104.28 522.183,1104.05 522.568,1104.05 C523.027,1104.05 523.386,1104.18 523.646,1104.44 C523.844,1104.63 523.975,1104.86 524.037,1105.12 C524.037,1105.25 523.969,1105.45 523.834,1105.71 L495.428,1138.73 L512.115,1138.73 L512.115,1125.63 C512.115,1124.79 512.344,1124.07 512.803,1123.48 C513.584,1122.83 514.235,1122.44 514.756,1122.3 C515.6,1121.92 516.641,1121.01 517.881,1119.57 C518.922,1118.4 520.162,1116.36 521.6,1113.43 C521.787,1113.03 522.079,1112.83 522.475,1112.83 C523.256,1112.83 523.709,1113.29 523.834,1114.21 L523.834,1138.73 L530.975,1138.73 C531.881,1138.73 532.402,1139.21 532.537,1140.18 C532.537,1141.16 532.016,1141.65 530.975,1141.65 L523.834,1141.65 L523.834,1142.43 C523.834,1145.03 524.485,1147.25 525.787,1149.07 C527.287,1150.89 529.047,1151.8 531.068,1151.8 C531.85,1151.8 532.24,1152.19 532.24,1152.98 C532.24,1153.76 531.85,1154.15 531.068,1154.15 C529.704,1154.15 527.49,1153.95 524.428,1153.57 C521.626,1153.11 519.443,1152.88 517.881,1152.88 C516.256,1152.88 514.074,1153.11 511.334,1153.57 C508.407,1153.95 506.23,1154.15 504.803,1154.15 C504.021,1154.15 503.631,1153.76 503.631,1152.98 C503.631,1152.19 504.021,1151.8 504.803,1151.8 C506.813,1151.8 508.568,1150.89 510.068,1149.07 C511.433,1147.18 512.115,1144.97 512.115,1142.43 L512.115,1141.65 L495.428,1141.65 C494.313,1141.65 493.532,1141.39 493.084,1140.87 C492.553,1140.48 492.287,1139.96 492.287,1139.3 C492.287,1139.11 492.777,1138.42 493.756,1137.26 C494.87,1135.95 496.042,1134.36 497.271,1132.48 C498.709,1130.26 500.079,1127.98 501.381,1125.63 C502.808,1122.96 503.949,1119.9 504.803,1116.44 C505.771,1112.93 506.256,1109.36 506.256,1105.71 C506.256,1104.67 506.714,1104.15 507.631,1104.15 C507.829,1104.15 508.251,1104.25 508.896,1104.44 C509.094,1104.51 509.503,1104.6 510.123,1104.73 C510.743,1104.86 511.245,1104.99 511.631,1105.12 C512.808,1105.31 513.917,1105.41 514.959,1105.41"/>
<path class="TimeSig" fill="fuchsia" d="M514.959,1155.58 C516.907,1155.58 518.566,1155.36 519.935,1154.9 C521.305,1154.45 522.183,1154.23 522.568,1154.23 C523.027,1154.23 523.386,1154.36 523.646,1154.62 C523.844,1154.8 523.975,1155.03 524.037,1155.29 C524.037,1155.42 523.969,1155.62 523.834,1155.88 L495.428,1188.9 L512.115,1188.9 L512.115,1175.8 C512.115,1174.96 512.344,1174.24 512.803,1173.65 C513.584,1173 514.235,1172.61 514.756,1172.48 C515.6,1172.09 516.641,1171.18 517.881,1169.74 C518.922,1168.57 520.162,1166.53 521.6,1163.6 C521.787,1163.2 522.079,1163.01 522.475,1163.01 C523.256,1163.01 523.709,1163.46 523.834,1164.38 L523.834,1188.9 L530.975,1188.9 C531.881,1188.9 532.402,1189.38 532.537,1190.35 C532.537,1191.33 532.016,1191.82 530.975,1191.82 L523.834,1191.82 L523.834,1192.6 C523.834,1195.2 524.485,1197.42 525.787,1199.24 C527.287,1201.06 529.047,1201.98 531.068,1201.98 C531.85,1201.98 532.24,1202.37 532.24,1203.15 C532.24,1203.93 531.85,1204.32 531.068,1204.32 C529.704,1204.32 527.49,1204.13 524.428,1203.74 C521.626,1203.28 519.443,1203.05 517.881,1203.05 C516.256,1203.05 514.074,1203.28 511.334,1203.74 C508.407,1204.13 506.23,1204.32 504.803,1204.32 C504.021,1204.32 503.631,1203.93 503.631,1203.15 C503.631,1202.37 504.021,1201.98 504.803,1201.98 C506.813,1201.98 508.568,1201.06 510.068,1199.24 C511.433,1197.36 512.115,1195.14 512.115,1192.6 L512.115,1191.82 L495.428,1191.82 C494.313,1191.82 493.532,1191.56 493.084,1191.04 C492.553,1190.65 492.287,1190.13 492.287,1189.48 C492.287,1189.28 492.777,1188.59 493.756,1187.43 C494.87,1186.13 496.042,1184.53 497.271,1182.65 C498.709,1180.43 500.079,1178.15 501.381,1175.8 C502.808,1173.14 503.949,1170.07 504.803,1166.62 C505.771,1163.11 506.256,1159.53 506.256,1155.88 C506.256,1154.84 506.714,1154.32 507.631,1154.32 C507.829,1154.32 508.251,1154.42 508.896,1154.62 C509.094,1154.68 509.503,1154.77 510.123,1154.9 C510.743,1155.04 511.245,1155.16 511.631,1155.29 C512.808,1155.49 513.917,1155.58 514.959,1155.58"/>
<path class="TimeSig" fill="fuchsia" d="M514.959,842.912 C516.907,842.912 518.566,842.686 519.935,842.233 C521.305,841.78 522.183,841.553 522.568,841.553 C523.027,841.553 523.386,841.683 523.646,841.944 C523.844,842.131 523.975,842.355 524.037,842.616 C524.037,842.751 523.969,842.949 523.834,843.209 L495.428,876.225 L512.115,876.225 L512.115,863.131 C512.115,862.287 512.344,861.569 512.803,860.975 C513.584,860.329 514.235,859.938 514.756,859.803 C515.6,859.418 516.641,858.506 517.881,857.069 C518.922,855.902 520.162,853.855 521.6,850.928 C521.787,850.532 522.079,850.334 522.475,850.334 C523.256,850.334 523.709,850.793 523.834,851.709 L523.834,876.225 L530.975,876.225 C531.881,876.225 532.402,876.709 532.537,877.678 C532.537,878.657 532.016,879.147 530.975,879.147 L523.834,879.147 L523.834,879.928 C523.834,882.532 524.485,884.746 525.787,886.569 C527.287,888.392 529.047,889.303 531.068,889.303 C531.85,889.303 532.24,889.694 532.24,890.475 C532.24,891.256 531.85,891.647 531.068,891.647 C529.704,891.647 527.49,891.454 524.428,891.069 C521.626,890.61 519.443,890.381 517.881,890.381 C516.256,890.381 514.074,890.61 511.334,891.069 C508.407,891.454 506.23,891.647 504.803,891.647 C504.021,891.647 503.631,891.256 503.631,890.475 C503.631,889.694 504.021,889.303 504.803,889.303 C506.813,889.303 508.568,888.392 510.068,886.569 C511.433,884.683 512.115,882.47 512.115,879.928 L512.115,879.147 L495.428,879.147 C494.313,879.147 493.532,878.886 493.084,878.366 C492.553,877.98 492.287,877.459 492.287,876.803 C492.287,876.605 492.777,875.923 493.756,874.756 C494.87,873.454 496.042,871.86 497.271,869.975 C498.709,867.756 500.079,865.475 501.381,863.131 C502.808,860.465 503.949,857.402 504.803,853.944 C505.771,850.433 506.256,846.855 506.256,843.209 C506.256,842.168 506.714,841.647 507.631,841.647 C507.829,841.647 508.251,841.746 508.896,841.944 C509.094,842.006 509.503,842.103 510.123,842.233 C510.743,842.363 511.245,842.491 511.631,842.616 C512.808,842.813 513.917,842.912 514.959,842.912"/>
<path class="TimeSig" fill="fuchsia" d="M514.959,893.084 C516.907,893.084 518.566,892.858 519.935,892.405 C521.305,891.952 522.183,891.725 522.568,891.725 C523.027,891.725 523.386,891.855 523.646,892.116 C523.844,892.303 523.975,892.527 524.037,892.787 C524.037,892.923 523.969,893.121 523.834,893.381 L495.428,926.397 L512.115,926.397 L512.115,913.303 C512.115,912.459 512.344,911.741 512.803,911.147 C513.584,910.501 514.235,910.11 514.756,909.975 C515.6,909.59 516.641,908.678 517.881,907.241 C518.922,906.074 520.162,904.027 521.6,901.1 C521.787,900.704 522.079,900.506 522.475,900.506 C523.256,900.506 523.709,900.965 523.834,901.881 L523.834,926.397 L530.975,926.397 C531.881,926.397 532.402,926.881 532.537,927.85 C532.537,928.829 532.016,929.319 530.975,929.319 L523.834,929.319 L523.834,930.1 C523.834,932.704 524.485,934.918 525.787,936.741 C527.287,938.564 529.047,939.475 531.068,939.475 C531.85,939.475 532.24,939.866 532.24,940.647 C532.24,941.428 531.85,941.819 531.068,941.819 C529.704,941.819 527.49,941.626 524.428,941.241 C521.626,940.782 519.443,940.553 517.881,940.553 C516.256,940.553 514.074,940.782 511.334,941.241 C508.407,941.626 506.23,941.819 504.803,941.819 C504.021,941.819 503.631,941.428 503.631,940.647 C503.631,939.866 504.021,939.475 504.803,939.475 C506.813,939.475 508.568,938.564 510.068,936.741 C511.433,934.855 512.115,932.642 512.115,930.1 L512.115,929.319 L495.428,929.319 C494.313,929.319 493.532,929.058 493.084,928.537 C492.553,928.152 492.287,927.631 492.287,926.975 C492.287,926.777 492.777,926.095 493.756,924.928 C494.87,923.626 496.042,922.032 497.271,920.147 C498.709,917.928 500.079,915.647 501.381,913.303 C502.808,910.636 503.949,907.574 504.803,904.116 C505.771,900.605 506.256,897.027 506.256,893.381 C506.256,892.34 506.714,891.819 507.631,891.819 C507.829,891.819 508.251,891.918 508.896,892.116 C509.094,892.178 509.503,892.274 510.123,892.405 C510.743,892.535 511.245,892.662 511.631,892.787 C512.808,892.985 513.917,893.084 514.959,893.084"/>
<path class="TimeSig" fill="fuchsia" d="M514.959,580.412 C516.907,580.412 518.566,580.186 519.935,579.733 C521.305,579.279 522.183,579.053 522.568,579.053 C523.027,579.053 523.386,579.183 523.646,579.444 C523.844,579.631 523.975,579.855 524.037,580.115 C524.037,580.251 523.969,580.449 523.834,580.709 L495.428,613.725 L512.115,613.725 L512.115,600.631 C512.115,599.787 512.344,599.069 512.803,598.475 C513.584,597.829 514.235,597.438 514.756,597.303 C515.6,596.917 516.641,596.006 517.881,594.569 C518.922,593.402 520.162,591.355 521.6,588.428 C521.787,588.032 522.079,587.834 522.475,587.834 C523.256,587.834 523.709,588.292 523.834,589.209 L523.834,613.725 L530.975,613.725 C531.881,613.725 532.402,614.209 532.537,615.178 C532.537,616.157 532.016,616.647 530.975,616.647 L523.834,616.647 L523.834,617.428 C523.834,620.032 524.485,622.246 525.787,624.069 C527.287,625.891 529.047,626.803 531.068,626.803 C531.85,626.803 532.24,627.194 532.24,627.975 C532.24,628.756 531.85,629.147 531.068,629.147 C529.704,629.147 527.49,628.954 524.428,628.569 C521.626,628.11 519.443,627.881 517.881,627.881 C516.256,627.881 514.074,628.11 511.334,628.569 C508.407,628.954 506.23,629.147 504.803,629.147 C504.021,629.147 503.631,628.756 503.631,627.975 C503.631,627.194 504.021,626.803 504.803,626.803 C506.813,626.803 508.568,625.891 510.068,624.069 C511.433,622.183 512.115,619.97 512.115,617.428 L512.115,616.647 L495.428,616.647 C494.313,616.647 493.532,616.386 493.084,615.865 C492.553,615.48 492.287,614.959 492.287,614.303 C492.287,614.105 492.777,613.423 493.756,612.256 C494.87,610.954 496.042,609.36 497.271,607.475 C498.709,605.256 500.079,602.975 501.381,600.631 C502.808,597.964 503.949,594.902 504.803,591.444 C505.771,587.933 506.256,584.355 506.256,580.709 C506.256,579.667 506.714,579.147 507.631,579.147 C507.829,579.147 508.251,579.246 508.896,579.444 C509.094,579.506 509.503,579.602 510.123,579.733 C510.743,579.863 511.245,579.99 511.631,580.115 C512.808,580.313 513.917,580.412 514.959,580.412"/>
<path class="TimeSig" fill="fuchsia" d="M514.959,630.584 C516.907,630.584 518.566,630.358 519.935,629.904 C521.305,629.451 522.183,629.225 522.568,629.225 C523.027,629.225 523.386,629.355 523.646,629.615 C523.844,629.803 523.975,630.027 524.037,630.287 C524.037,630.423 523.969,630.621 523.834,630.881 L495.428,663.897 L512.115,663.897 L512.115,650.803 C512.115,649.959 512.344,649.24 512.803,648.647 C513.584,648.001 514.235,647.61 514.756,647.475 C515.6,647.089 516.641,646.178 517.881,644.74 C518.922,643.574 520.162,641.527 521.6,638.6 C521.787,638.204 522.079,638.006 522.475,638.006 C523.256,638.006 523.709,638.464 523.834,639.381 L523.834,663.897 L530.975,663.897 C531.881,663.897 532.402,664.381 532.537,665.35 C532.537,666.329 532.016,666.819 530.975,666.819 L523.834,666.819 L523.834,667.6 C523.834,670.204 524.485,672.418 525.787,674.24 C527.287,676.063 529.047,676.975 531.068,676.975 C531.85,676.975 532.24,677.365 532.24,678.147 C532.24,678.928 531.85,679.319 531.068,679.319 C529.704,679.319 527.49,679.126 524.428,678.74 C521.626,678.282 519.443,678.053 517.881,678.053 C516.256,678.053 514.074,678.282 511.334,678.74 C508.407,679.126 506.23,679.319 504.803,679.319 C504.021,679.319 503.631,678.928 503.631,678.147 C503.631,677.365 504.021,676.975 504.803,676.975 C506.813,676.975 508.568,676.063 510.068,674.24 C511.433,672.355 512.115,670.141 512.115,667.6 L512.115,666.819 L495.428,666.819 C494.313,666.819 493.532,666.558 493.084,666.037 C492.553,665.652 492.287,665.131 492.287,664.475 C492.287,664.277 492.777,663.595 493.756,662.428 C494.87,661.126 496.042,659.532 497.271,657.647 C498.709,655.428 500.079,653.147 501.381,650.803 C502.808,648.136 503.949,645.074 504.803,641.615 C505.771,638.105 506.256,634.527 506.256,630.881 C506.256,629.839 506.714,629.319 507.631,629.319 C507.829,629.319 508.251,629.418 508.896,629.615 C509.094,629.678 509.503,629.774 510.123,629.904 C510.743,630.035 511.245,630.162 511.631,630.287 C512.808,630.485 513.917,630.584 514.959,630.584"/>
<path class="TimeSig" fill="fuchsia" d="M514.959,317.912 C516.907,317.912 518.566,317.686 519.935,317.232 C521.305,316.779 522.183,316.553 522.568,316.553 C523.027,316.553 523.386,316.683 523.646,316.943 C523.844,317.131 523.975,317.355 524.037,317.615 C524.037,317.751 523.969,317.949 523.834,318.209 L495.428,351.225 L512.115,351.225 L512.115,338.131 C512.115,337.287 512.344,336.568 512.803,335.975 C513.584,335.329 514.235,334.938 514.756,334.803 C515.6,334.417 516.641,333.506 517.881,332.068 C518.922,330.902 520.162,328.855 521.6,325.928 C521.787,325.532 522.079,325.334 522.475,325.334 C523.256,325.334 523.709,325.792 523.834,326.709 L523.834,351.225 L530.975,351.225 C531.881,351.225 532.402,351.709 532.537,352.678 C532.537,353.657 532.016,354.146 530.975,354.146 L523.834,354.146 L523.834,354.928 C523.834,357.532 524.485,359.745 525.787,361.568 C527.287,363.391 529.047,364.303 531.068,364.303 C531.85,364.303 532.24,364.693 532.24,365.475 C532.24,366.256 531.85,366.646 531.068,366.646 C529.704,366.646 527.49,366.454 524.428,366.068 C521.626,365.61 519.443,365.381 517.881,365.381 C516.256,365.381 514.074,365.61 511.334,366.068 C508.407,366.454 506.23,366.646 504.803,366.646 C504.021,366.646 503.631,366.256 503.631,365.475 C503.631,364.693 504.021,364.303 504.803,364.303 C506.813,364.303 508.568,363.391 510.068,361.568 C511.433,359.683 512.115,357.469 512.115,354.928 L512.115,354.146 L495.428,354.146 C494.313,354.146 493.532,353.886 493.084,353.365 C492.553,352.98 492.287,352.459 492.287,351.803 C492.287,351.605 492.777,350.923 493.756,349.756 C494.87,348.454 496.042,346.86 497.271,344.975 C498.709,342.756 500.079,340.475 501.381,338.131 C502.808,335.464 503.949,332.402 504.803,328.943 C505.771,325.433 506.256,321.855 506.256,318.209 C506.256,317.167 506.714,316.646 507.631,316.646 C507.829,316.646 508.251,316.745 508.896,316.943 C509.094,317.006 509.503,317.102 510.123,317.232 C510.743,317.363 511.245,317.49 511.631,317.615 C512.808,317.813 513.917,317.912 514.959,317.912"/>
<path class="TimeSig" fill="fuchsia" d="M514.959,368.084 C516.907,368.084 518.566,367.857 519.935,367.404 C521.305,366.951 522.183,366.725 522.568,366.725 C523.027,366.725 523.386,366.855 523.646,367.115 C523.844,367.303 523.975,367.527 524.037,367.787 C524.037,367.923 523.969,368.12 523.834,368.381 L495.428,401.397 L512.115,401.397 L512.115,388.303 C512.115,387.459 512.344,386.74 512.803,386.147 C513.584,385.501 514.235,385.11 514.756,384.975 C515.6,384.589 516.641,383.678 517.881,382.24 C518.922,381.074 520.162,379.027 521.6,376.1 C521.787,375.704 522.079,375.506 522.475,375.506 C523.256,375.506 523.709,375.964 523.834,376.881 L523.834,401.397 L530.975,401.397 C531.881,401.397 532.402,401.881 532.537,402.85 C532.537,403.829 532.016,404.318 530.975,404.318 L523.834,404.318 L523.834,405.1 C523.834,407.704 524.485,409.917 525.787,411.74 C527.287,413.563 529.047,414.475 531.068,414.475 C531.85,414.475 532.24,414.865 532.24,415.647 C532.24,416.428 531.85,416.818 531.068,416.818 C529.704,416.818 527.49,416.626 524.428,416.24 C521.626,415.782 519.443,415.553 517.881,415.553 C516.256,415.553 514.074,415.782 511.334,416.24 C508.407,416.626 506.23,416.818 504.803,416.818 C504.021,416.818 503.631,416.428 503.631,415.647 C503.631,414.865 504.021,414.475 504.803,414.475 C506.813,414.475 508.568,413.563 510.068,411.74 C511.433,409.855 512.115,407.641 512.115,405.1 L512.115,404.318 L495.428,404.318 C494.313,404.318 493.532,404.058 493.084,403.537 C492.553,403.152 492.287,402.631 492.287,401.975 C492.287,401.777 492.777,401.094 493.756,399.928 C494.87,398.626 496.042,397.032 497.271,395.147 C498.709,392.928 500.079,390.647 501.381,388.303 C502.808,385.636 503.949,382.574 504.803,379.115 C505.771,375.605 506.256,372.027 506.256,368.381 C506.256,367.339 506.714,366.818 507.631,366.818 C507.829,366.818 508.251,366.917 508.896,367.115 C509.094,367.178 509.503,367.274 510.123,367.404 C510.743,367.535 511.245,367.662 511.631,367.787 C512.808,367.985 513.917,368.084 514.959,368.084"/>
<path class="Rest" fill="orange" d="M883.76,1144.86 L848.213,1144.86 C847.557,1144.86 847.229,1144.53 847.229,1143.89 L847.229,1130.22 C847.229,1129.56 847.557,1129.23 848.213,1129.23 L883.76,1129.23 C884.406,1129.23 884.729,1129.56 884.729,1130.22 L884.729,1143.89 C884.729,1144.53 884.406,1144.86 883.76,1144.86"/>
<path class="Rest" fill="orange" d="M883.76,882.358 L848.213,882.358 C847.557,882.358 847.229,882.035 847.229,881.389 L847.229,867.717 C847.229,867.061 847.557,866.733 848.213,866.733 L883.76,866.733 C884.406,866.733 884.729,867.061 884.729,867.717 L884.729,881.389 C884.729,882.035 884.406,882.358 883.76,882.358"/>
<path class="Rest" fill="orange" d="M883.76,619.858 L848.213,619.858 C847.557,619.858 847.229,619.535 847.229,618.889 L847.229,605.217 C847.229,604.561 847.557,604.233 848.213,604.233 L883.76,604.233 C884.406,604.233 884.729,604.561 884.729,605.217 L884.729,618.889 C884.729,619.535 884.406,619.858 883.76,619.858"/>
<path class="Rest" fill="orange" d="M883.76,357.357 L848.213,357.357 C847.557,357.357 847.229,357.034 847.229,356.389 L847.229,342.717 C847.229,342.061 847.557,341.732 848.213,341.732 L883.76,341.732 C884.406,341.732 884.729,342.061 884.729,342.717 L884.729,356.389 C884.729,357.034 884.406,357.357 883.76,357.357"/>
<polyline class="Bracket" fill="none" stroke="#000000" stroke-width="11.25" stroke-linejoin="bevel" points="362.482,304.857 362.482,1216.11"/>
<path class="Bracket" d="M400.81,272.498 C401.133,272.498 401.524,272.659 401.982,272.982 C402.243,273.368 402.373,273.727 402.373,274.061 C402.373,274.383 402.274,274.675 402.076,274.936 C401.753,275.394 400.123,277.837 397.185,282.264 C395.3,285.128 393.446,287.894 391.623,290.561 C391.04,291.467 389.154,293.873 385.967,297.779 C383.487,300.717 381.237,302.998 379.217,304.623 C377.331,306.05 375.024,307.415 372.295,308.717 C369.618,309.894 366.915,310.482 364.185,310.482 L356.857,310.482 L356.857,301.982 C356.857,301.264 357.086,300.678 357.545,300.225 C358.003,299.771 358.586,299.545 359.295,299.545 L364.185,299.545 C368.029,299.545 371.576,298.826 374.826,297.389 C378.211,295.962 381.435,293.878 384.498,291.139 C387.102,288.795 389.737,286.061 392.404,282.936 C395.144,279.488 397.519,276.232 399.529,273.17 C399.79,272.722 400.217,272.498 400.81,272.498"/>
<path class="Bracket" d="M402.373,1246.9 C402.373,1247.24 402.243,1247.6 401.982,1247.98 C401.524,1248.31 401.133,1248.47 400.81,1248.47 C400.217,1248.47 399.79,1248.24 399.529,1247.8 C397.519,1244.73 395.144,1241.48 392.404,1238.03 C389.737,1234.9 387.102,1232.17 384.498,1229.83 C381.435,1227.09 378.211,1225 374.826,1223.58 C371.576,1222.14 368.029,1221.42 364.185,1221.42 L359.295,1221.42 C358.586,1221.42 358.003,1221.19 357.545,1220.74 C357.086,1220.29 356.857,1219.7 356.857,1218.98 L356.857,1210.48 L364.185,1210.48 C366.915,1210.48 369.618,1211.07 372.295,1212.25 C375.024,1213.55 377.331,1214.92 379.217,1216.34 C381.237,1217.97 383.487,1220.25 385.967,1223.19 C389.154,1227.09 391.04,1229.5 391.623,1230.4 C393.446,1233.07 395.3,1235.84 397.185,1238.7 C400.123,1243.13 401.753,1245.57 402.076,1246.03 C402.274,1246.29 402.373,1246.58 402.373,1246.9"/>
</svg>
